# Blender 3.4.1
# www.blender.org
mtllib kust.mtl
o kust.001
v 0.000000 -0.092239 -0.971157
v 0.000000 -0.092239 0.971157
v -0.000000 1.141078 -0.971157
v -0.000000 1.141078 0.971157
v -0.742406 -0.092239 0.485578
v 0.742406 -0.092239 -0.485578
v -0.742406 1.141078 0.485578
v 0.742406 1.141078 -0.485578
v 0.742406 -0.092239 0.485579
v -0.742406 -0.092239 -0.485579
v 0.742406 1.141078 0.485579
v -0.742406 1.141078 -0.485579
v 0.428628 -0.092239 -0.841047
v -0.428628 -0.092239 0.841047
v 0.428628 1.141078 -0.841047
v -0.428628 1.141078 0.841047
v -0.857257 -0.092239 -0.000000
v 0.857257 -0.092239 -0.000000
v -0.857257 1.141078 0.000000
v 0.857257 1.141078 0.000000
v 0.428628 -0.092239 0.841047
v -0.428628 -0.092239 -0.841047
v 0.428628 1.141078 0.841047
v -0.428628 1.141078 -0.841047
vn -1.0000 -0.0000 -0.0000
vn 0.5474 -0.0000 0.8369
vn 0.5474 -0.0000 -0.8369
vn -0.8910 -0.0000 -0.4541
vn -0.0000 -0.0000 1.0000
vn 0.8910 -0.0000 -0.4541
vt 0.000000 0.000000
vt 1.000000 0.000000
vt 0.000000 1.000000
vt 1.000000 1.000000
vt 0.000000 0.000000
vt 1.000000 0.000000
vt 0.000000 1.000000
vt 1.000000 1.000000
vt 0.000000 0.000000
vt 1.000000 0.000000
vt 0.000000 1.000000
vt 1.000000 1.000000
vt 0.000000 0.000000
vt 1.000000 0.000000
vt 0.000000 1.000000
vt 1.000000 1.000000
vt 0.000000 0.000000
vt 1.000000 0.000000
vt 0.000000 1.000000
vt 1.000000 1.000000
vt 0.000000 0.000000
vt 1.000000 0.000000
vt 0.000000 1.000000
vt 1.000000 1.000000
s 0
usemtl kust
f 1/1/1 2/2/1 4/4/1 3/3/1
f 5/5/2 6/6/2 8/8/2 7/7/2
f 9/9/3 10/10/3 12/12/3 11/11/3
f 13/13/4 14/14/4 16/16/4 15/15/4
f 17/17/5 18/18/5 20/20/5 19/19/5
f 21/21/6 22/22/6 24/24/6 23/23/6
