# Blender 3.4.1
# www.blender.org
mtllib rock.mtl
o Icosphere
v 0.964243 0.566302 0.693970
v -0.615897 0.556520 0.994914
v -0.898464 0.387714 0.001396
v -0.329097 0.529790 -0.914244
v 1.267309 0.421628 -0.463851
v 0.383700 0.863162 -0.624242
v 0.931050 0.928459 0.229231
v 1.028292 0.927820 -0.137238
v -0.056592 0.937776 0.710293
v 0.600884 0.931405 0.583477
v -0.495002 0.942415 0.346835
v -0.432266 0.941609 0.561641
v -0.277912 0.941070 -0.564206
v -0.467613 0.942683 -0.269669
v 0.386236 0.934449 -0.479745
v 0.405971 0.934248 -0.472753
v 0.392610 0.934382 -0.475814
v -0.332956 0.322866 0.542722
v 0.551111 0.325804 0.370058
v 1.009503 0.338481 -0.375113
v -0.757115 0.332178 -0.004619
v -0.196021 0.342138 -0.590011
vn 0.1017 -0.8564 0.5062
vn -0.3446 -0.9044 0.2517
vn -0.3549 -0.8649 -0.3549
vn 0.0913 -0.8452 -0.5266
vn 0.2787 0.2179 -0.9354
vn 0.0099 1.0000 0.0009
vn 0.1087 0.8937 -0.4353
vn 0.2738 0.8606 -0.4294
vn -0.7869 0.4288 -0.4438
vn 0.0207 0.7144 -0.6994
vn -0.8299 0.5336 0.1630
vn -0.7977 0.6021 -0.0352
vn 0.1692 0.4260 0.8887
vn -0.2263 0.7737 0.5918
vn 0.4044 0.6686 -0.6240
vn 0.9225 0.3228 0.2115
vn 0.5367 0.6837 0.4945
vn -0.0000 -0.9999 -0.0170
vn 0.3645 -0.9075 0.2088
vt 0.219422 0.503221
vt 0.226278 0.423573
vt 0.243050 0.381837
vt 0.265627 0.309269
vt 0.269089 0.655254
vt 0.228111 0.555140
vt 0.225216 0.611846
vt 0.174664 0.568776
vt 0.201786 0.524850
vt 0.195344 0.559148
vt 0.200487 0.555421
vt 0.149524 0.654622
vt 0.201820 0.441644
vt 0.155235 0.598292
vt 0.202432 0.489379
vt 0.171054 0.690731
vt 0.206183 0.387780
vt 0.158746 0.686081
vt 0.206643 0.407934
vt 0.222459 0.669501
vt 0.232996 0.309649
vt 0.232126 0.670153
vt 0.205993 0.686552
vt 0.222710 0.337230
vt 0.216417 0.612877
vt 0.215970 0.611204
vt 0.216182 0.612339
vt 0.249589 0.433940
vt 0.277426 0.347448
vt 0.293545 0.409887
vt 0.239280 0.497331
vt 0.333901 0.433706
vt 0.238896 0.552822
vt 0.248824 0.384397
vt 0.300449 0.309269
vt 0.277365 0.341746
vt 0.277365 0.627301
vt 0.333901 0.342689
s 0
usemtl Material.001
f 19/31/1 1/1/1 2/2/1 18/28/1
f 18/28/2 2/2/2 3/3/2 21/34/2
f 21/34/3 3/3/3 4/4/3 22/36/3
f 22/37/4 4/5/4 5/6/4 20/33/4
f 5/6/5 4/5/5 6/7/5
f 11/16/6 12/18/6 9/12/6 10/14/6 7/8/6 8/10/6 16/26/6 17/27/6 15/25/6 13/20/6 14/23/6
f 16/26/7 6/7/7 17/27/7
f 6/7/8 15/25/8 17/27/8
f 4/4/9 3/3/9 14/24/9 13/21/9
f 4/5/10 13/22/10 15/25/10 6/7/10
f 3/3/11 2/2/11 12/19/11 11/17/11
f 3/3/12 11/17/12 14/24/12
f 2/2/13 1/1/13 10/15/13 9/13/13
f 2/2/14 9/13/14 12/19/14
f 5/6/15 6/7/15 16/26/15 8/11/15
f 1/1/16 5/6/16 8/11/16 7/9/16
f 1/1/17 7/9/17 10/15/17
f 22/38/18 20/32/18 19/30/18 18/29/18 21/35/18
f 1/1/19 19/31/19 20/33/19 5/6/19
