# Alias OBJ Model File
# Exported from SketchUp, (c) 2000-2012 Trimble Navigation Limited
# File units = millimeters

mtllib wall2.mtl

g Mesh1 Group1 Model

usemtl Granite_Light_Gray
v 0 0 -822
vt -45.3937 5.7951e-15
vn -1 0 -0
v 0 0 -0
vt -13.0315 5.7951e-15
v 0 4000 -0
vt -13.0315 157.48
v 0 4000 -822
vt -45.3937 157.48
f 1/1/1 2/2/1 3/3/1 4/4/1 

vt 0 45.3937
vn 0 -1 -0
v 863.213 0 -822
vt -33.9847 45.3937
v 863.213 0 -0
vt -33.9847 13.0315
vt 0 13.0315
f 1/5/2 5/6/2 6/7/2 2/8/2 

v 820.43 4000 -822
vt -32.3004 157.48
vn -1.01704e-16 -1.79815e-16 -1
v 1004.05 3429.84 -822
vt -39.5294 135.033
v 909.662 3087.13 -822
vt -35.8135 121.541
v 909.662 2513.67 -822
vt -35.8135 98.9635
v 1951.66 2513.67 -822
vt -76.8371 98.9635
v 2250 2859.67 -822
vt -88.5827 112.586
v 2715.66 2859.67 -822
vt -106.916 112.586
v 3285.87 3417.94 -822
vt -129.365 134.565
v 3501.7 4000 -822
vt -137.862 157.48
v 4000 4000 -822
vt -157.48 157.48
v 4000 0 -822
vt -157.48 1.39576e-14
v 2818.06 -1.47196e-13 -822
vt -110.947 8.16248e-15
vt -33.9847 1.39576e-14
vt -4.61674e-15 1.39576e-14
vt -4.61674e-15 157.48
f 7/9/3 8/10/3 9/11/3 10/12/3 11/13/3 12/14/3 13/15/3 14/16/3 15/17/3 16/18/3 17/19/3 18/20/3 5/21/3 1/22/3 4/23/3 

v 1004.05 3429.84 -1.7053e-13
vt 13.0315 116.415
vn 0.951859 0.306537 -2.21426e-19
vt 45.3937 116.415
vt 45.3937 139.998
v 820.43 4000 -0
vt 13.0315 139.998
f 19/24/4 8/25/4 7/26/4 20/27/4 

vt 13.0315 140.682
vn 0.964104 -0.265525 5.92989e-18
v 909.662 3087.13 -3.41061e-13
vt 13.0315 126.687
vt 45.3937 126.687
vt 45.3937 140.682
f 19/28/5 21/29/5 9/30/5 8/31/5 

v 2715.66 2859.67 -3.41061e-13
vt 106.916 112.586
vn -2.05654e-18 3.06351e-17 1
v 2250 2859.67 -3.41061e-13
vt 88.5827 112.586
v 1951.66 2513.67 -3.41061e-13
vt 76.8371 98.9635
v 909.662 2513.67 -3.41061e-13
vt 35.8135 98.9635
vt 35.8135 121.541
vt 39.5294 135.033
vt 32.3004 157.48
vt -2.67998e-17 157.48
vt -2.67998e-17 6.19432e-15
vt 33.9847 6.19432e-15
v 2818.06 0 -0
vt 110.947 6.19432e-15
v 4000 0 -0
vt 157.48 6.19432e-15
v 4000 4000 -0
vt 157.48 157.48
v 3501.7 4000 -0
vt 137.862 157.48
v 3285.87 3417.94 -3.41061e-13
vt 129.365 134.565
f 22/32/6 23/33/6 24/34/6 25/35/6 21/36/6 19/37/6 20/38/6 3/39/6 2/40/6 6/41/6 26/42/6 27/43/6 28/44/6 29/45/6 30/46/6 

vt 106.916 45.3937
vn 0 1 -0
vt 88.5827 45.3937
vt 88.5827 13.0315
vt 106.916 13.0315
f 13/47/7 12/48/7 23/49/7 22/50/7 

vt -13.0315 125.125
vn -0.757343 0.653017 8.12638e-18
vt -13.0315 143.112
vt -45.3937 143.112
vt -45.3937 125.125
f 24/51/8 23/52/8 12/53/8 11/54/8 

vt 35.8135 13.0315
vt 76.8371 13.0315
vt 76.8371 45.3937
vt 35.8135 45.3937
f 25/55/7 24/56/7 11/57/7 10/58/7 

vt 13.0315 121.541
vn 1 0 -4.73393e-20
vt 13.0315 98.9635
vt 45.3937 98.9635
vt 45.3937 121.541
f 21/59/9 25/60/9 10/61/9 9/62/9 

vt -13.0315 155.16
vn -0.699583 0.714551 -0
vt -13.0315 186.577
vt -45.3937 186.577
vt -45.3937 155.16
f 22/63/10 30/64/10 14/65/10 13/66/10 

vt -13.0315 171.146
vn -0.937617 0.34767 -5.85102e-18
vt -13.0315 195.587
vt -45.3937 195.587
vt -45.3937 171.146
f 30/67/11 29/68/11 15/69/11 14/70/11 

vt 157.48 45.3937
vt 137.862 45.3937
vt 137.862 13.0315
vt 157.48 13.0315
f 16/71/7 15/72/7 29/73/7 28/74/7 

v 3386.89 4000 -1088
vt -133.342 55.8661
v 4000 4000 -1088
vt -157.48 55.8661
vt -157.48 45.3937
vt -137.862 45.3937
v 3386.89 4000 -822
vt -133.342 45.3937
f 31/75/2 32/76/2 16/77/2 15/78/2 33/79/2 

vn 0 0 -1
vt -133.342 157.48
v 3278.98 4552 -1088
vt -129.094 179.213
v 4000 4552 -1088
vt -157.48 179.213
f 32/18/12 31/80/12 34/81/12 35/82/12 

v 3386.89 4000 331
vt 0 128.972
vn -0.981423 -0.191855 -0
v 3278.98 4552 331
vt 0 151.116
vt -55.8661 151.116
vt -55.8661 128.972
vt -45.3937 128.972
f 36/83/13 37/84/13 34/85/13 31/86/13 33/87/13 

v 4000 4552 331
vt 157.48 179.213
vn 0 0 1
vt 129.094 179.213
vt 133.342 157.48
v 4000 4000 331
f 38/88/14 37/89/14 36/90/14 39/44/14 

vt 157.48 55.8661
vt 129.094 55.8661
vt 129.094 0
vt 157.48 0
f 35/91/7 34/92/7 37/93/7 38/94/7 

vt 13.0315 157.48
vn 1 0 -0
vt 45.3937 157.48
vt 55.8661 157.48
vt 55.8661 179.213
vt 0 179.213
vt 0 157.48
f 28/95/15 16/96/15 32/97/15 35/98/15 38/99/15 39/100/15 

vt 13.0315 -1.64735e-13
vn 1 1.08287e-15 -0
vt 45.3937 -1.64735e-13
f 27/101/16 17/102/16 16/96/16 28/95/16 

vt -110.947 13.0315
vn 6.22684e-17 -1 8.9535e-17
vt -110.947 45.3937
vt -157.48 13.0315
f 26/103/17 18/104/17 17/77/17 27/105/17 

vn -3.76489e-17 -1 8.9535e-17
f 5/6/18 18/104/18 26/103/18 6/7/18 

vt -133.342 0
vt -137.862 13.0315
vt -157.48 0
f 36/106/2 33/79/2 15/78/2 29/107/2 28/105/2 39/108/2 

vt -32.3004 13.0315
v 820.43 4000 331
vt -32.3004 0
v 0 4000 331
vt 0 0
f 3/8/2 20/109/2 40/110/2 41/111/2 

vt 32.3004 13.0315
vt 32.3004 45.3937
f 20/112/7 7/113/7 4/5/7 3/8/7 

v 1021.86 4552 331
vt -1.5935e-17 182.145
vn 0.93941 -0.342796 -3.72093e-19
vt -1.27939e-17 159.011
vt 13.0315 159.011
vt 45.3937 159.011
v 820.43 4000 -1088
vt 55.8661 159.011
v 1021.86 4552 -1088
vt 55.8661 182.145
f 42/114/19 40/115/19 20/116/19 7/117/19 43/118/19 44/119/19 

vt 40.2306 179.213
v 0 4552 331
f 41/100/14 40/38/14 42/120/14 45/99/14 

vt 40.2306 0
vt 40.2306 55.8661
v 0 4552 -1088
vt 0 55.8661
f 45/111/7 42/121/7 44/122/7 46/123/7 

vt -40.2306 179.213
v 0 4000 -1088
f 46/99/12 44/124/12 43/9/12 47/100/12 

vt -32.3004 55.8661
vt -32.3004 45.3937
f 47/123/2 43/125/2 7/126/2 4/5/2 

vt -55.8661 179.213
vt -55.8661 157.48
f 4/4/1 3/3/1 41/100/1 45/99/1 46/127/1 47/128/1 

